<svg xmlns="http://www.w3.org/2000/svg" viewBox="0 0 110 190">
  <style type="text/css">
    .flame { animation: scale-beat .5s ease-out infinite; }
    @keyframes scale-beat {
      30% { transform: scaleY(1.05); }
      50% { transform: scaleY(1); }
      70% { transform: scaleY(1.05); }
      100% { transform: scaleY(1); }
    }
  </style>

  <!-- fins -->
  <path fill="#E55039" d="M23.25,125.54H88.42A5.53,5.53,0,0,1,92,126.8l9,7.39a5.54,5.54,0,0,0,9.06-4.27v-9.84a5.52,5.52,0,0,0-2.08-4.31L79.26,92.91a5.55,5.55,0,0,0-3.45-1.21H34.13a5.56,5.56,0,0,0-3.46,1.21L2,115.77A5.51,5.51,0,0,0,0,120.08v11.28A5.54,5.54,0,0,0,9,135.63l10.7-8.83A5.52,5.52,0,0,1,23.25,125.54Z" transform="translate(0.03 -0.04)"/>
  <!-- body tube -->
  <path fill="#4A69BD" d="M55.38,0C70,0,81.88,33.62,81.88,75S70,150,55.38,150s-26.5-33.58-26.5-75S40.75,0,55.38,0" transform="translate(0.03 -0.04)"/>
  <!-- engine -->
  <ellipse fill="#FF4757" cx="55.53" cy="137.21" rx="21.5" ry="13"/>
  <!-- window -->
  <ellipse fill="black" cx="55" cy="25" rx="10" ry="10"/>

  <!-- flame -->
  <ellipse fill="#FA983A" cx="55" cy="162.5" rx="8" ry="8"/>
  <polygon fill="#FA983A" class="flame" points="55,155 48,158 55,180 62,158" />
</svg>
